<svg width="41" height="41" viewBox="0 0 41 41" fill="none" xmlns="http://www.w3.org/2000/svg">
<g clip-path="url(#clip0_5_29681)">
<path d="M7.33325 33.6675H13.9166L31.1978 16.3862C31.6301 15.954 31.973 15.4408 32.2069 14.876C32.4409 14.3112 32.5613 13.7059 32.5613 13.0946C32.5613 12.4833 32.4409 11.8779 32.2069 11.3131C31.973 10.7484 31.6301 10.2352 31.1978 9.80291C30.7656 9.37064 30.2524 9.02775 29.6876 8.7938C29.1228 8.55986 28.5175 8.43945 27.9062 8.43945C27.2949 8.43945 26.6895 8.55986 26.1247 8.7938C25.5599 9.02775 25.0468 9.37064 24.6145 9.80291L7.33325 27.0842V33.6675Z" stroke="white" stroke-width="3.29167" stroke-linecap="round" stroke-linejoin="round"/>
<path d="M22.9688 11.4473L29.5521 18.0306" stroke="white" stroke-width="3.29167" stroke-linecap="round" stroke-linejoin="round"/>
</g>
<defs>
<clipPath id="clip0_5_29681">
<rect width="39.5" height="39.5" fill="white" transform="translate(0.75 0.75)"/>
</clipPath>
</defs>
</svg>
