<svg width="35" height="34" viewBox="0 0 35 34" fill="none" xmlns="http://www.w3.org/2000/svg">
<g clip-path="url(#clip0_133_157)">
<path d="M33.9234 17.3848C33.9234 16.2462 33.831 15.1014 33.6341 13.9813H17.835V20.4314H26.8824C26.5069 22.5117 25.3006 24.3519 23.5342 25.5213V29.7065H28.9319C32.1016 26.7892 33.9234 22.4809 33.9234 17.3848Z" fill="white"/>
<path d="M17.8354 33.7515C22.353 33.7515 26.1627 32.2682 28.9385 29.7079L23.5408 25.5227C22.0391 26.5444 20.1003 27.1229 17.8416 27.1229C13.4717 27.1229 9.7666 24.1748 8.43719 20.2112H2.86719V24.5256C5.71066 30.1818 11.5022 33.7515 17.8354 33.7515Z" fill="white"/>
<path d="M8.43108 20.2114C7.72944 18.1311 7.72944 15.8785 8.43108 13.7982V9.48376H2.86723C0.491521 14.2167 0.491521 19.7929 2.86723 24.5258L8.43108 20.2114Z" fill="white"/>
<path d="M17.8354 6.87973C20.2234 6.84281 22.5314 7.74139 24.2609 9.39085L29.0431 4.60865C26.015 1.76518 21.996 0.201891 17.8354 0.251129C11.5022 0.251129 5.71066 3.82085 2.86719 9.48317L8.43103 13.7976C9.75429 9.82783 13.4656 6.87973 17.8354 6.87973Z" fill="white"/>
</g>
<defs>
<clipPath id="clip0_133_157">
<rect width="33.5" height="33.5" fill="white" transform="translate(0.75 0.25)"/>
</clipPath>
</defs>
</svg>
