<svg width="22" height="15" viewBox="0 0 22 15" fill="none" xmlns="http://www.w3.org/2000/svg">
<g clip-path="url(#clip0_2003_4453)">
<mask id="mask0_2003_4453" style="mask-type:alpha" maskUnits="userSpaceOnUse" x="0" y="2" width="41" height="6">
<path fill-rule="evenodd" clip-rule="evenodd" d="M14.6997 4.82283C14.6997 3.38423 15.4213 2.2334 16.7227 2.2334C18.0242 2.2334 18.7456 3.38423 18.7456 4.82283C18.7456 6.26168 18.024 7.41227 16.7229 7.41227C15.4213 7.41227 14.6997 6.26168 14.6997 4.82283ZM16.7227 6.69406C17.2288 6.69406 17.4443 5.83076 17.4443 4.82479C17.4443 3.81833 17.2271 2.95551 16.7227 2.95551C16.2182 2.95551 16.001 3.81857 16.001 4.82479C15.9993 5.83076 16.2165 6.69406 16.7227 6.69406ZM1.26008 2.30668V3.67371H1.3319L2.27069 2.30668H3.57029L1.83635 3.88819L1.90817 3.95977L5.08731 2.30497V3.45581L2.26898 4.46202V4.53335L5.08731 4.28223V5.36173L2.26898 5.1106V5.18218L5.08731 6.18815V7.33922L1.90817 5.68418L1.83635 5.75576L3.57029 7.33727H2.27069L1.3319 5.97024H1.26008V7.33727H0.321289V2.30326H1.26008V2.30668ZM5.9577 2.30668H7.18573L7.11391 5.32679H7.18573L8.63068 2.30668H9.71482V7.34093H8.48704L8.55886 4.32058H8.48704L7.0416 7.34118H5.95746L5.9577 2.30668ZM11.8096 2.30668H10.5818V7.34093H11.8096V5.1106H12.8202V7.34093H14.048V2.30668H12.8202V4.24925H11.8096V2.30668ZM22.8635 2.30668H19.3971V7.34093H20.6251V3.16975H21.6357V7.34093H22.8635V2.30668ZM23.5133 4.82283C23.5133 3.38423 24.2349 2.2334 25.5365 2.2334C26.8361 2.2334 27.5594 3.38423 27.5594 4.82283C27.5594 6.26168 26.8378 7.41227 25.5365 7.41227C24.2369 7.41227 23.5133 6.26168 23.5133 4.82283ZM25.5365 6.69406C26.0427 6.69406 26.2581 5.83076 26.2581 4.82479C26.2581 3.81833 26.041 2.95551 25.5365 2.95551C25.0303 2.95551 24.8149 3.81857 24.8149 4.82479C24.8149 5.83076 25.0303 6.69406 25.5365 6.69406ZM29.437 2.30668H28.2092V7.34093H29.2934L30.7386 4.32058H30.8104L30.7386 7.34093H31.9664V2.30668H30.8822L29.437 5.32679H29.3652L29.437 2.30668ZM35.219 5.61456L36.375 5.75747C36.1578 6.76393 35.6534 7.41227 34.5761 7.41227C33.2765 7.41227 32.6179 6.26168 32.6179 4.82283C32.6179 3.38423 33.2748 2.2334 34.5761 2.2334C35.6307 2.2334 36.1578 2.88051 36.375 3.81515L35.219 4.10268C35.1472 3.59871 34.9369 2.95209 34.5761 2.95209C34.1434 2.95209 33.9192 3.81515 33.9192 4.82112C33.9192 5.82025 34.1434 6.6904 34.5761 6.6904C34.93 6.69406 35.1453 6.11853 35.219 5.61456ZM38.1089 2.30693H36.953V7.34093H38.1089V5.1106H38.1808L39.0477 7.34093H40.3842L39.1195 4.7515L40.3473 2.30668H39.1195L38.1808 4.53702H38.1089V2.30693Z" fill="white"/>
</mask>
<g mask="url(#mask0_2003_4453)">
<rect x="0.321289" y="1.33594" width="18.6017" height="7.28417" fill="white"/>
</g>
</g>
<g clip-path="url(#clip1_2003_4453)">
<mask id="mask1_2003_4453" style="mask-type:alpha" maskUnits="userSpaceOnUse" x="-19" y="9" width="41" height="6">
<path fill-rule="evenodd" clip-rule="evenodd" d="M-4.38279 11.6568C-4.38279 10.2182 -3.66117 9.06738 -2.35986 9.06738C-1.0583 9.06738 -0.336924 10.2182 -0.336924 11.6568C-0.336924 13.0957 -1.05855 14.2462 -2.35961 14.2462C-3.66117 14.2462 -4.38279 13.0957 -4.38279 11.6568ZM-2.35986 13.528C-1.8537 13.528 -1.63824 12.6647 -1.63824 11.6588C-1.63824 10.6523 -1.85541 9.78949 -2.35986 9.78949C-2.86431 9.78949 -3.08148 10.6526 -3.08148 11.6588C-3.08319 12.6647 -2.86602 13.528 -2.35986 13.528ZM-17.8224 9.14067V10.5077H-17.7506L-16.8118 9.14067H-15.5122L-17.2462 10.7222L-17.1743 10.7938L-13.9952 9.13896V10.2898L-16.8135 11.296V11.3673L-13.9952 11.1162V12.1957L-16.8135 11.9446V12.0162L-13.9952 13.0221V14.1732L-17.1743 12.5182L-17.2462 12.5897L-15.5122 14.1713H-16.8118L-17.7506 12.8042H-17.8224V14.1713H-18.7612V9.13725H-17.8224V9.14067ZM-13.1248 9.14067H-11.8968L-11.9686 12.1608H-11.8968L-10.4518 9.14067H-9.36769V14.1749H-10.5955L-10.5237 11.1546H-10.5955L-12.0409 14.1752H-13.1251L-13.1248 9.14067ZM-7.27294 9.14067H-8.50072V14.1749H-7.27294V11.9446H-6.26233V14.1749H-5.03455V9.14067H-6.26233V11.0832H-7.27294V9.14067ZM3.78101 9.14067H0.314586V14.1749H1.54261V10.0037H2.55323V14.1749H3.78101V9.14067ZM4.43081 11.6568C4.43081 10.2182 5.15243 9.06738 6.45399 9.06738C7.75359 9.06738 8.47692 10.2182 8.47692 11.6568C8.47692 13.0957 7.7553 14.2462 6.45399 14.2462C5.15438 14.2462 4.43081 13.0957 4.43081 11.6568ZM6.45399 13.528C6.96015 13.528 7.17561 12.6647 7.17561 11.6588C7.17561 10.6523 6.95844 9.78949 6.45399 9.78949C5.94783 9.78949 5.73236 10.6526 5.73236 11.6588C5.73236 12.6647 5.94783 13.528 6.45399 13.528ZM10.3545 9.14067H9.12672V14.1749H10.2109L11.6561 11.1546H11.7279L11.6561 14.1749H12.8838V9.14067H11.7997L10.3545 12.1608H10.2827L10.3545 9.14067ZM16.1365 12.4485L17.2925 12.5915C17.0753 13.5979 16.5709 14.2462 15.4936 14.2462C14.1939 14.2462 13.5354 13.0957 13.5354 11.6568C13.5354 10.2182 14.1922 9.06738 15.4936 9.06738C16.5481 9.06738 17.0753 9.7145 17.2925 10.6491L16.1365 10.9367C16.0647 10.4327 15.8544 9.78607 15.4936 9.78607C15.0609 9.78607 14.8367 10.6491 14.8367 11.6551C14.8367 12.6542 15.0609 13.5244 15.4936 13.5244C15.8475 13.528 16.0627 12.9525 16.1365 12.4485ZM19.0264 9.14091H17.8705V14.1749H19.0264V11.9446H19.0982L19.9652 14.1749H21.3017L20.037 11.5855L21.2648 9.14067H20.037L19.0982 11.371H19.0264V9.14091Z" fill="white"/>
</mask>
<g mask="url(#mask1_2003_4453)">
<rect x="0.359863" y="8.01465" width="20.942" height="7.28417" fill="white"/>
</g>
</g>
<defs>
<clipPath id="clip0_2003_4453">
<rect width="22" height="9" fill="white"/>
</clipPath>
<clipPath id="clip1_2003_4453">
<rect width="22" height="6" fill="white" transform="translate(0 9)"/>
</clipPath>
</defs>
</svg>
