<svg width="40" height="15" viewBox="0 0 40 15" fill="none" xmlns="http://www.w3.org/2000/svg">
<g clip-path="url(#clip0_3_20295)">
<mask id="mask0_3_20295" style="mask-type:alpha" maskUnits="userSpaceOnUse" x="1" y="1" width="39" height="6">
<path fill-rule="evenodd" clip-rule="evenodd" d="M15.1416 4.33774C15.1416 2.9972 15.814 1.9248 17.0266 1.9248C18.2395 1.9248 18.9117 2.9972 18.9117 4.33774C18.9117 5.67852 18.2392 6.75068 17.0269 6.75068C15.814 6.75068 15.1416 5.67852 15.1416 4.33774ZM17.0266 6.08143C17.4983 6.08143 17.6991 5.27697 17.6991 4.33956C17.6991 3.40171 17.4967 2.5977 17.0266 2.5977C16.5566 2.5977 16.3542 3.40193 16.3542 4.33956C16.3526 5.27697 16.555 6.08143 17.0266 6.08143ZM2.61797 1.9931V3.26694H2.68489L3.5597 1.9931H4.77072L3.15496 3.46681L3.22189 3.53351L6.18434 1.9915V3.06389L3.5581 4.00153V4.068L6.18434 3.83399V4.83991L3.5581 4.6059V4.6726L6.18434 5.61V6.68262L3.22189 5.14039L3.15496 5.20708L4.77072 6.6808H3.5597L2.68489 5.40695H2.61797V6.6808H1.74316V1.98991H2.61797V1.9931ZM6.9954 1.9931H8.13973L8.0728 4.80736H8.13973L9.48619 1.9931H10.4964V6.68421H9.35234L9.41927 3.86972H9.35234L8.00542 6.68444H6.99518L6.9954 1.9931ZM12.4484 1.9931H11.3043V6.68421H12.4484V4.6059H13.3901V6.68421H14.5342V1.9931H13.3901V3.80325H12.4484V1.9931ZM22.7489 1.9931H19.5188V6.68421H20.6631V2.79733H21.6048V6.68421H22.7489V1.9931ZM23.3544 4.33774C23.3544 2.9972 24.0269 1.9248 25.2397 1.9248C26.4507 1.9248 27.1248 2.9972 27.1248 4.33774C27.1248 5.67852 26.4523 6.75068 25.2397 6.75068C24.0287 6.75068 23.3544 5.67852 23.3544 4.33774ZM25.2397 6.08143C25.7114 6.08143 25.9122 5.27697 25.9122 4.33956C25.9122 3.40171 25.7098 2.5977 25.2397 2.5977C24.7681 2.5977 24.5673 3.40193 24.5673 4.33956C24.5673 5.27697 24.7681 6.08143 25.2397 6.08143ZM28.8744 1.9931H27.7303V6.68421H28.7405L30.0872 3.86972H30.1542L30.0872 6.68421H31.2313V1.9931H30.2211L28.8744 4.80736H28.8075L28.8744 1.9931ZM34.2623 5.07551L35.3395 5.20868C35.1371 6.14654 34.667 6.75068 33.6632 6.75068C32.4521 6.75068 31.8384 5.67852 31.8384 4.33774C31.8384 2.9972 32.4505 1.9248 33.6632 1.9248C34.6459 1.9248 35.1371 2.52781 35.3395 3.39875L34.2623 3.66667C34.1954 3.19706 33.9994 2.59451 33.6632 2.59451C33.26 2.59451 33.051 3.39875 33.051 4.33615C33.051 5.26718 33.26 6.07802 33.6632 6.07802C33.993 6.08143 34.1935 5.54512 34.2623 5.07551ZM36.9552 1.99332H35.878V6.68421H36.9552V4.6059H37.0221L37.83 6.68421H39.0754L37.8969 4.27127L39.041 1.9931H37.8969L37.0221 4.07141H36.9552V1.99332Z" fill="white"/>
</mask>
<g mask="url(#mask0_3_20295)">
<rect x="1.74316" y="1.08887" width="17.3338" height="6.78768" fill="white"/>
</g>
</g>
<mask id="mask1_3_20295" style="mask-type:alpha" maskUnits="userSpaceOnUse" x="-17" y="8" width="39" height="6">
<path fill-rule="evenodd" clip-rule="evenodd" d="M-2.64065 10.7059C-2.64065 9.36536 -1.96821 8.29297 -0.7556 8.29297C0.457243 8.29297 1.12945 9.36536 1.12945 10.7059C1.12945 12.0467 0.457014 13.1188 -0.755373 13.1188C-1.96822 13.1188 -2.64065 12.0467 -2.64065 10.7059ZM-0.7556 12.4496C-0.283938 12.4496 -0.0831642 11.6451 -0.0831642 10.7077C-0.0831642 9.76987 -0.285532 8.96586 -0.7556 8.96586C-1.22567 8.96586 -1.42804 9.7701 -1.42804 10.7077C-1.42963 11.6451 -1.22726 12.4496 -0.7556 12.4496ZM-15.1643 8.36126V9.63511H-15.0973L-14.2225 8.36126H-13.0115L-14.6273 9.83497L-14.5603 9.90167L-11.5979 8.35967V9.43206L-14.2241 10.3697V10.4362L-11.5979 10.2021V11.2081L-14.2241 10.9741V11.0408L-11.5979 11.9782V13.0508L-14.5603 11.5086L-14.6273 11.5752L-13.0115 13.049H-14.2225L-15.0973 11.7751H-15.1643V13.049H-16.0391V8.35807H-15.1643V8.36126ZM-10.7868 8.36126H-9.6425L-9.70942 11.1755H-9.6425L-8.29603 8.36126H-7.28579V13.0524H-8.42988L-8.36296 10.2379H-8.42988L-9.7768 13.0526H-10.7871L-10.7868 8.36126ZM-5.33381 8.36126H-6.47791V13.0524H-5.33381V10.9741H-4.39208V13.0524H-3.24798V8.36126H-4.39208V10.1714H-5.33381V8.36126ZM4.96671 8.36126H1.73656V13.0524H2.88088V9.1655H3.82261V13.0524H4.96671V8.36126ZM5.57222 10.7059C5.57222 9.36536 6.24465 8.29297 7.4575 8.29297C8.66852 8.29297 9.34255 9.36536 9.34255 10.7059C9.34255 12.0467 8.67011 13.1188 7.4575 13.1188C6.24648 13.1188 5.57222 12.0467 5.57222 10.7059ZM7.4575 12.4496C7.92916 12.4496 8.12993 11.6451 8.12993 10.7077C8.12993 9.76987 7.92756 8.96586 7.4575 8.96586C6.98584 8.96586 6.78506 9.7701 6.78506 10.7077C6.78506 11.6451 6.98584 12.4496 7.4575 12.4496ZM11.0922 8.36126H9.94806V13.0524H10.9583L12.305 10.2379H12.3719L12.305 13.0524H13.4491V8.36126H12.4388L11.0922 11.1755H11.0252L11.0922 8.36126ZM16.4801 11.4437L17.5572 11.5768C17.3549 12.5147 16.8848 13.1188 15.8809 13.1188C14.6699 13.1188 14.0562 12.0467 14.0562 10.7059C14.0562 9.36536 14.6683 8.29297 15.8809 8.29297C16.8636 8.29297 17.3549 8.89598 17.5572 9.76691L16.4801 10.0348C16.4131 9.56522 16.2171 8.96267 15.8809 8.96267C15.4778 8.96267 15.2688 9.76691 15.2688 10.7043C15.2688 11.6353 15.4778 12.4462 15.8809 12.4462C16.2108 12.4496 16.4113 11.9133 16.4801 11.4437ZM19.173 8.36149H18.0958V13.0524H19.173V10.9741H19.2399L20.0478 13.0524H21.2932L20.1147 10.6394L21.2588 8.36126H20.1147L19.2399 10.4396H19.173V8.36149Z" fill="white"/>
</mask>
<g mask="url(#mask1_3_20295)">
<rect x="1.77832" y="7.31152" width="19.5146" height="6.78768" fill="white"/>
</g>
<defs>
<clipPath id="clip0_3_20295">
<rect width="37.3323" height="8.19489" fill="white" transform="translate(1.74316 0.240234)"/>
</clipPath>
</defs>
</svg>
