<svg width="45" height="15" viewBox="0 0 45 15" fill="none" xmlns="http://www.w3.org/2000/svg">
<path d="M1.20491 3.46967C1.18807 2.72742 1.78312 2.11221 2.53399 2.09557C3.28486 2.07892 3.9072 2.66714 3.92404 3.4094L4.10042 11.1845C4.11726 11.9267 3.52221 12.5419 2.77134 12.5586C2.02047 12.5752 1.39812 11.987 1.38128 11.2447L1.20491 3.46967Z" fill="white"/>
<path d="M6.14534 3.2226C6.1285 2.48035 6.72355 1.86514 7.47442 1.8485C8.22529 1.83185 8.84763 2.42007 8.86447 3.16233L9.04645 11.1844C9.06329 11.9267 8.46824 12.5419 7.71737 12.5585C6.9665 12.5752 6.34416 11.9869 6.32732 11.2447L6.14534 3.2226Z" fill="white"/>
<path d="M8.274 9.4696C8.70369 10.0785 8.55265 10.9165 7.93665 11.3413C7.32065 11.766 6.47296 11.6167 6.04327 11.0078L1.63738 4.76399C1.20769 4.15506 1.35872 3.31709 1.97472 2.89233C2.59072 2.46757 3.43842 2.61687 3.86811 3.2258L8.274 9.4696Z" fill="white"/>
<path d="M12.8961 6.72584C12.6425 6.72584 12.4288 6.8082 12.2549 6.97295C12.081 7.13768 11.9832 7.3472 11.9614 7.60147H13.8308C13.8127 7.33645 13.7167 7.12515 13.5428 6.96758C13.3725 6.80643 13.157 6.72584 12.8961 6.72584ZM13.8961 9.36887H15.8796C15.7854 10.0099 15.4738 10.5167 14.9449 10.8891C14.4159 11.258 13.7403 11.4425 12.9179 11.4425C11.9361 11.4425 11.168 11.1703 10.6137 10.6259C10.0594 10.078 9.78223 9.32232 9.78223 8.35892C9.78223 7.3884 10.0576 6.62199 10.6083 6.0597C11.159 5.49384 11.9053 5.21094 12.8472 5.21094C13.7783 5.21094 14.521 5.48311 15.0753 6.02746C15.6296 6.56827 15.9068 7.2917 15.9068 8.19777V8.79408H11.9288V8.93374C11.9288 9.22382 12.0248 9.46379 12.2168 9.6536C12.4088 9.83981 12.6534 9.93293 12.9505 9.93293C13.1787 9.93293 13.3762 9.88281 13.5428 9.78251C13.7131 9.68224 13.8308 9.54435 13.8961 9.36887ZM19.5859 11.4425C18.6004 11.4425 17.8287 11.1721 17.2708 10.6313C16.7129 10.0869 16.4339 9.31694 16.4339 8.32133C16.4339 7.35078 16.7165 6.58975 17.2817 6.03822C17.8505 5.48669 18.6185 5.21094 19.5859 5.21094C20.5604 5.21094 21.3303 5.48669 21.8955 6.03822C22.4606 6.58618 22.7432 7.3472 22.7432 8.32133C22.7432 9.31694 22.4643 10.0869 21.9063 10.6313C21.3484 11.1721 20.5749 11.4425 19.5859 11.4425ZM19.5859 9.86847C19.8648 9.86847 20.084 9.73416 20.2434 9.46556C20.4028 9.19696 20.4825 8.81733 20.4825 8.32671C20.4825 7.84681 20.401 7.47076 20.238 7.19859C20.0786 6.9228 19.8612 6.78494 19.5859 6.78494C19.3105 6.78494 19.0931 6.9228 18.9337 7.19859C18.7743 7.47076 18.6946 7.84681 18.6946 8.32671C18.6946 8.82094 18.7725 9.20234 18.9283 9.47094C19.0841 9.73596 19.3033 9.86847 19.5859 9.86847Z" fill="white"/>
<path d="M23.7051 3.54004H26.7538C27.5363 3.54004 28.1721 3.77998 28.6612 4.25988C29.1503 4.7362 29.3949 5.36117 29.3949 6.13473C29.3949 6.90471 29.1431 7.52968 28.6395 8.00957C28.1395 8.48947 27.491 8.72941 26.694 8.72941H25.1071V11.2919H23.7051V3.54004ZM25.1071 4.67355V7.61204H26.3788C26.8824 7.61204 27.2737 7.4831 27.5526 7.22526C27.8316 6.96739 27.9711 6.6039 27.9711 6.13473C27.9711 5.66916 27.8316 5.30922 27.5526 5.05495C27.2773 4.80068 26.8878 4.67355 26.3842 4.67355H25.1071ZM30.3241 11.2919V3.54004H31.6773V11.2919H30.3241ZM34.9325 10.3732C35.3202 10.3732 35.6461 10.2604 35.9107 10.0348C36.1787 9.80561 36.3129 9.5209 36.3129 9.18067V8.74554L34.9814 8.8261C34.6552 8.84761 34.4017 8.92817 34.2205 9.06787C34.0431 9.20395 33.9544 9.38481 33.9544 9.61041C33.9544 9.84323 34.0431 10.0294 34.2205 10.1691C34.4017 10.3052 34.6391 10.3732 34.9325 10.3732ZM34.5251 11.3832C33.9633 11.3832 33.5015 11.2238 33.1391 10.9051C32.7805 10.5863 32.6012 10.1727 32.6012 9.66414C32.6012 9.15918 32.7895 8.75984 33.1663 8.46618C33.5466 8.17252 34.0882 8.0042 34.7912 7.96123L36.3129 7.87526V7.467C36.3129 7.16973 36.2168 6.93875 36.0248 6.774C35.8365 6.60925 35.5737 6.52688 35.2367 6.52688C34.9217 6.52688 34.6645 6.59671 34.4651 6.73641C34.266 6.87607 34.1445 7.06589 34.1009 7.30582H32.8457C32.8748 6.76504 33.1082 6.32634 33.5466 5.98968C33.9887 5.64945 34.5702 5.47935 35.2912 5.47935C36.005 5.47935 36.5754 5.65125 37.003 5.99506C37.4342 6.33887 37.6497 6.79729 37.6497 7.3703V11.2919H36.3454V10.384H36.3182C36.1552 10.6884 35.9088 10.932 35.5793 11.1146C35.2494 11.2937 34.8982 11.3832 34.5251 11.3832ZM39.3615 13.4085C39.0681 13.4085 38.8907 13.4013 38.8288 13.387V12.3287C38.8907 12.343 39.0211 12.3502 39.2202 12.3502C39.4991 12.3502 39.7167 12.2929 39.8722 12.1783C40.028 12.0637 40.144 11.8756 40.22 11.6142C40.22 11.6106 40.2327 11.5587 40.2581 11.4584C40.2871 11.3581 40.2998 11.3044 40.2961 11.2973L38.2476 5.59753H39.7257L41.0841 10.153H41.1061L42.4645 5.59753H43.8885L41.8069 11.5175C41.5605 12.223 41.2563 12.7137 40.894 12.9894C40.5317 13.2688 40.0209 13.4085 39.3615 13.4085Z" fill="white"/>
</svg>
