<svg width="23" height="9" viewBox="0 0 23 9" fill="none" xmlns="http://www.w3.org/2000/svg">
<path d="M0.391602 8.48405H2.70569V0.15332H0.391602V8.48405Z" fill="black"/>
<path d="M7.64563 0.15332L7.12772 4.04491L6.80594 1.92824C6.71264 1.25024 6.62314 0.658603 6.53746 0.15332H3.63184V8.48405H5.59494L5.60256 2.9829L6.42893 8.48405H7.82652L8.611 2.86163L8.61671 8.48405H10.5741V0.15332H7.64563Z" fill="black"/>
<path d="M11.499 8.48405V0.15332H15.1111C15.9279 0.15332 16.59 0.810496 16.59 1.62351V7.01386C16.59 7.82582 15.929 8.48405 15.1111 8.48405H11.499ZM14.1983 1.65263C14.1065 1.60302 13.9309 1.57914 13.6755 1.57914V7.04537C14.0127 7.04537 14.2202 6.98474 14.2981 6.85796C14.3759 6.73301 14.4158 6.39493 14.4158 5.84004V2.60991C14.4158 2.23325 14.4018 1.99255 14.3759 1.88598C14.3499 1.77941 14.2921 1.70224 14.1983 1.65263Z" fill="black"/>
<path d="M20.9543 2.23918H21.1022C21.9331 2.23918 22.6066 2.88981 22.6066 3.6915V7.03172C22.6066 7.83382 21.9333 8.48405 21.1022 8.48405H20.9543C20.4459 8.48405 19.9965 8.24045 19.7241 7.8677L19.5909 8.37703H17.5156V0.15332H19.7299V2.82866C20.016 2.47211 20.4569 2.23918 20.9543 2.23918ZM20.4802 6.3015V4.32751C20.4802 4.00135 20.4593 3.7873 20.4157 3.68877C20.3721 3.59024 20.1979 3.52698 20.0758 3.52698C19.9536 3.52698 19.7653 3.57839 19.7286 3.66503V4.32751V6.3647V7.00649C19.7705 7.10162 19.9502 7.15456 20.0758 7.15456C20.2014 7.15456 20.3843 7.10332 20.4227 7.00649C20.461 6.90966 20.4802 6.67353 20.4802 6.3015Z" fill="black"/>
</svg>
