<svg width="30" height="14" viewBox="0 0 42 16" fill="none" xmlns="http://www.w3.org/2000/svg">
<g clip-path="url(#clip0_3_22753)">
<mask id="mask0_3_22753" style="mask-type:alpha" maskUnits="userSpaceOnUse" x="0" y="2" width="42" height="6">
<path fill-rule="evenodd" clip-rule="evenodd" d="M15.3694 4.70076C15.3694 3.26216 16.091 2.11133 17.3923 2.11133C18.6939 2.11133 19.4153 3.26216 19.4153 4.70076C19.4153 6.13961 18.6937 7.29019 17.3926 7.29019C16.091 7.29019 15.3694 6.13961 15.3694 4.70076ZM17.3923 6.57199C17.8985 6.57199 18.114 5.70869 18.114 4.70272C18.114 3.69626 17.8968 2.83344 17.3923 2.83344C16.8879 2.83344 16.6707 3.6965 16.6707 4.70272C16.669 5.70869 16.8862 6.57199 17.3923 6.57199ZM1.92976 2.18461V3.55164H2.00158L2.94037 2.18461H4.23997L2.50603 3.76612L2.57785 3.8377L5.75699 2.1829V3.33374L2.93866 4.33995V4.41128L5.75699 4.16016V5.23966L2.93866 4.98853V5.06011L5.75699 6.06608V7.21715L2.57785 5.56211L2.50603 5.63369L4.23997 7.2152H2.94037L2.00158 5.84817H1.92976V7.2152H0.990967V2.18119H1.92976V2.18461ZM6.62738 2.18461H7.85541L7.78359 5.20472H7.85541L9.30036 2.18461H10.3845V7.21886H9.15672L9.22854 4.19851H9.15672L7.71128 7.21911H6.62714L6.62738 2.18461ZM12.4793 2.18461H11.2515V7.21886H12.4793V4.98853H13.4899V7.21886H14.7177V2.18461H13.4899V4.12718H12.4793V2.18461ZM23.5332 2.18461H20.0668V7.21886H21.2948V3.04768H22.3054V7.21886H23.5332V2.18461ZM24.183 4.70076C24.183 3.26216 24.9046 2.11133 26.2062 2.11133C27.5058 2.11133 28.2291 3.26216 28.2291 4.70076C28.2291 6.13961 27.5075 7.29019 26.2062 7.29019C24.9066 7.29019 24.183 6.13961 24.183 4.70076ZM26.2062 6.57199C26.7123 6.57199 26.9278 5.70869 26.9278 4.70272C26.9278 3.69626 26.7106 2.83344 26.2062 2.83344C25.7 2.83344 25.4846 3.6965 25.4846 4.70272C25.4846 5.70869 25.7 6.57199 26.2062 6.57199ZM30.1067 2.18461H28.8789V7.21886H29.9631L31.4083 4.19851H31.4801L31.4083 7.21886H32.636V2.18461H31.5519L30.1067 5.20472H30.0349L30.1067 2.18461ZM35.8887 5.49249L37.0447 5.6354C36.8275 6.64186 36.3231 7.29019 35.2458 7.29019C33.9461 7.29019 33.2876 6.13961 33.2876 4.70076C33.2876 3.26216 33.9444 2.11133 35.2458 2.11133C36.3003 2.11133 36.8275 2.75844 37.0447 3.69308L35.8887 3.98061C35.8169 3.47664 35.6066 2.83002 35.2458 2.83002C34.8131 2.83002 34.5889 3.69308 34.5889 4.69905C34.5889 5.69818 34.8131 6.56833 35.2458 6.56833C35.5997 6.57199 35.8149 5.99646 35.8887 5.49249ZM38.7786 2.18486H37.6227V7.21886H38.7786V4.98853H38.8504L39.7174 7.21886H41.0539L39.7892 4.62943L41.017 2.18461H39.7892L38.8504 4.41495H38.7786V2.18486Z" fill="white"/>
</mask>
<g mask="url(#mask0_3_22753)">
<rect x="0.990967" y="1.21387" width="18.6017" height="7.28417" fill="white"/>
</g>
</g>
<mask id="mask1_3_22753" style="mask-type:alpha" maskUnits="userSpaceOnUse" x="-19" y="8" width="41" height="7">
<path fill-rule="evenodd" clip-rule="evenodd" d="M-3.7136 11.5347C-3.7136 10.0961 -2.99198 8.94531 -1.69067 8.94531C-0.389111 8.94531 0.332266 10.0961 0.332266 11.5347C0.332266 12.9736 -0.389357 14.1242 -1.69042 14.1242C-2.99198 14.1242 -3.7136 12.9736 -3.7136 11.5347ZM-1.69067 13.406C-1.18451 13.406 -0.969048 12.5427 -0.969048 11.5367C-0.969048 10.5302 -1.18622 9.66742 -1.69067 9.66742C-2.19512 9.66742 -2.41229 10.5305 -2.41229 11.5367C-2.414 12.5427 -2.19683 13.406 -1.69067 13.406ZM-17.1532 9.0186V10.3856H-17.0814L-16.1426 9.0186H-14.843L-16.577 10.6001L-16.5052 10.6717L-13.326 9.01689V10.1677L-16.1443 11.1739V11.2453L-13.326 10.9941V12.0736L-16.1443 11.8225V11.8941L-13.326 12.9001V14.0511L-16.5052 12.3961L-16.577 12.4677L-14.843 14.0492H-16.1426L-17.0814 12.6822H-17.1532V14.0492H-18.092V9.01518H-17.1532V9.0186ZM-12.4556 9.0186H-11.2276L-11.2994 12.0387H-11.2276L-9.78265 9.0186H-8.69851V14.0528H-9.92629L-9.85447 11.0325H-9.92629L-11.3717 14.0531H-12.4559L-12.4556 9.0186ZM-6.60375 9.0186H-7.83153V14.0528H-6.60375V11.8225H-5.59314V14.0528H-4.36536V9.0186H-5.59314V10.9612H-6.60375V9.0186ZM4.4502 9.0186H0.983776V14.0528H2.2118V9.88166H3.22242V14.0528H4.4502V9.0186ZM5.1 11.5347C5.1 10.0961 5.82162 8.94531 7.12318 8.94531C8.42278 8.94531 9.14611 10.0961 9.14611 11.5347C9.14611 12.9736 8.42449 14.1242 7.12318 14.1242C5.82357 14.1242 5.1 12.9736 5.1 11.5347ZM7.12318 13.406C7.62934 13.406 7.8448 12.5427 7.8448 11.5367C7.8448 10.5302 7.62763 9.66742 7.12318 9.66742C6.61702 9.66742 6.40155 10.5305 6.40155 11.5367C6.40155 12.5427 6.61702 13.406 7.12318 13.406ZM11.0237 9.0186H9.79591V14.0528H10.8801L12.3252 11.0325H12.3971L12.3252 14.0528H13.553V9.0186H12.4689L11.0237 12.0387H10.9519L11.0237 9.0186ZM16.8057 12.3265L17.9617 12.4694C17.7445 13.4758 17.24 14.1242 16.1627 14.1242C14.8631 14.1242 14.2045 12.9736 14.2045 11.5347C14.2045 10.0961 14.8614 8.94531 16.1627 8.94531C17.2173 8.94531 17.7445 9.59243 17.9617 10.5271L16.8057 10.8146C16.7339 10.3106 16.5236 9.664 16.1627 9.664C15.7301 9.664 15.5059 10.5271 15.5059 11.533C15.5059 12.5322 15.7301 13.4023 16.1627 13.4023C16.5167 13.406 16.7319 12.8304 16.8057 12.3265ZM19.6956 9.01884H18.5396V14.0528H19.6956V11.8225H19.7674L20.6344 14.0528H21.9709L20.7062 11.4634L21.934 9.0186H20.7062L19.7674 11.2489H19.6956V9.01884Z" fill="white"/>
</mask>
<g mask="url(#mask1_3_22753)">
<rect x="1.02856" y="7.89258" width="20.942" height="7.28417" fill="white"/>
</g>
<defs>
<clipPath id="clip0_3_22753">
<rect width="40.0629" height="8.7943" fill="white" transform="translate(0.990967 0.303711)"/>
</clipPath>
</defs>
</svg>
