<svg width="32" height="32" viewBox="0 0 32 32" fill="none" xmlns="http://www.w3.org/2000/svg">
<g clip-path="url(#clip0_133_572)">
<path fill-rule="evenodd" clip-rule="evenodd" d="M18.6667 17.3333C18.9932 17.3334 19.3085 17.4533 19.5525 17.6703C19.7965 17.8873 19.9525 18.1863 19.9907 18.5107L20 18.6667V26.6667C19.9996 27.0065 19.8695 27.3334 19.6362 27.5805C19.4029 27.8276 19.0841 27.9763 18.7448 27.9962C18.4056 28.0161 18.0715 27.9058 17.8109 27.6876C17.5503 27.4695 17.3828 27.1601 17.3427 26.8227L17.3333 26.6667V18.6667C17.3333 18.313 17.4738 17.9739 17.7239 17.7239C17.9739 17.4738 18.313 17.3333 18.6667 17.3333ZM22.6667 23.3333C23.0203 23.3333 23.3594 23.4738 23.6095 23.7239C23.8595 23.9739 24 24.313 24 24.6667V26.6667C24 27.0203 23.8595 27.3594 23.6095 27.6095C23.3594 27.8595 23.0203 28 22.6667 28C22.313 28 21.9739 27.8595 21.7239 27.6095C21.4738 27.3594 21.3333 27.0203 21.3333 26.6667V24.6667C21.3333 24.313 21.4738 23.9739 21.7239 23.7239C21.9739 23.4738 22.313 23.3333 22.6667 23.3333ZM26.6667 17.3333C26.9932 17.3334 27.3084 17.4533 27.5525 17.6703C27.7965 17.8873 27.9525 18.1863 27.9907 18.5107L28 18.6667V26.6667C27.9996 27.0065 27.8695 27.3334 27.6362 27.5805C27.4029 27.8276 27.0841 27.9763 26.7448 27.9962C26.4056 28.0161 26.0715 27.9058 25.8109 27.6876C25.5503 27.4695 25.3828 27.1601 25.3427 26.8227L25.3333 26.6667V18.6667C25.3333 18.313 25.4738 17.9739 25.7239 17.7239C25.9739 17.4738 26.313 17.3333 26.6667 17.3333ZM12 17.3333C12.7072 17.3333 13.3855 17.6143 13.8856 18.1144C14.3857 18.6145 14.6667 19.2928 14.6667 20V25.3333C14.6667 26.0406 14.3857 26.7189 13.8856 27.219C13.3855 27.719 12.7072 28 12 28H6.66667C5.95942 28 5.28115 27.719 4.78105 27.219C4.28095 26.7189 4 26.0406 4 25.3333V20C4 19.2928 4.28095 18.6145 4.78105 18.1144C5.28115 17.6143 5.95942 17.3333 6.66667 17.3333H12ZM12 20H6.66667V25.3333H12V20ZM22.6667 17.3333C22.9932 17.3334 23.3084 17.4533 23.5525 17.6703C23.7965 17.8873 23.9525 18.1863 23.9907 18.5107L24 18.6667V20.6667C23.9996 21.0065 23.8695 21.3334 23.6362 21.5805C23.4029 21.8276 23.0841 21.9763 22.7448 21.9962C22.4056 22.0161 22.0715 21.9058 21.8109 21.6876C21.5503 21.4695 21.3828 21.1601 21.3427 20.8227L21.3333 20.6667V18.6667C21.3333 18.313 21.4738 17.9739 21.7239 17.7239C21.9739 17.4738 22.313 17.3333 22.6667 17.3333ZM12 4C12.7072 4 13.3855 4.28095 13.8856 4.78105C14.3857 5.28115 14.6667 5.95942 14.6667 6.66667V12C14.6667 12.7072 14.3857 13.3855 13.8856 13.8856C13.3855 14.3857 12.7072 14.6667 12 14.6667H6.66667C5.95942 14.6667 5.28115 14.3857 4.78105 13.8856C4.28095 13.3855 4 12.7072 4 12V6.66667C4 5.95942 4.28095 5.28115 4.78105 4.78105C5.28115 4.28095 5.95942 4 6.66667 4H12ZM25.3333 4C26.0406 4 26.7189 4.28095 27.219 4.78105C27.719 5.28115 28 5.95942 28 6.66667V12C28 12.7072 27.719 13.3855 27.219 13.8856C26.7189 14.3857 26.0406 14.6667 25.3333 14.6667H20C19.2928 14.6667 18.6145 14.3857 18.1144 13.8856C17.6143 13.3855 17.3333 12.7072 17.3333 12V6.66667C17.3333 5.95942 17.6143 5.28115 18.1144 4.78105C18.6145 4.28095 19.2928 4 20 4H25.3333ZM12 6.66667H6.66667V12H12V6.66667ZM25.3333 6.66667H20V12H25.3333V6.66667Z" fill="white"/>
</g>
<defs>
<clipPath id="clip0_133_572">
<rect width="32" height="32" fill="white"/>
</clipPath>
</defs>
</svg>
