<svg width="24" height="14" viewBox="0 0 24 14" fill="none" xmlns="http://www.w3.org/2000/svg">
<path fill-rule="evenodd" clip-rule="evenodd" d="M10.8217 0.821474C11.1343 0.509022 11.5581 0.333496 12.0001 0.333496C12.442 0.333496 12.8658 0.509022 13.1784 0.821474L22.6067 10.2498C22.9103 10.5641 23.0783 10.9851 23.0745 11.4221C23.0707 11.8591 22.8954 12.2772 22.5864 12.5862C22.2774 12.8952 21.8594 13.0705 21.4224 13.0743C20.9854 13.0781 20.5644 12.9101 20.2501 12.6065L12.0001 4.35647L3.75006 12.6065C3.43572 12.9101 3.01472 13.0781 2.57772 13.0743C2.14073 13.0705 1.72271 12.8952 1.41369 12.5862C1.10468 12.2772 0.929397 11.8591 0.9256 11.4221C0.921803 10.9851 1.08979 10.5641 1.39339 10.2498L10.8217 0.821474Z" fill="#D3D3D4"/>
</svg>
